HIERARCHY
ROOT Hips
{
	OFFSET -3.958830 18.904000 13.208200
	CHANNELS 6 Xposition Yposition Zposition Zrotation Yrotation Xrotation 
	JOINT LHipJoint
	{
		OFFSET 0.000000 0.000000 0.000000
		CHANNELS 3 Zrotation Yrotation Xrotation
		JOINT LeftUpLeg
		{
			OFFSET 1.800000 -1.400000 0.085000
			CHANNELS 3 Zrotation Yrotation Xrotation
			JOINT LeftLeg
			{
				OFFSET 2.215000 -6.000000 0.000000
				CHANNELS 3 Zrotation Yrotation Xrotation
				JOINT LeftFoot
				{
					OFFSET 2.500000 -6.900000 0.000000
					CHANNELS 3 Zrotation Yrotation Xrotation
					JOINT LeftToeBase
					{
						OFFSET 0.200000 -0.500000 1.950000
						CHANNELS 3 Zrotation Yrotation Xrotation
						End Site
						{
							OFFSET 0.000000 0.000000 0.000000
						}
					}
				}
			}
		}
	}
	JOINT RHipJoint
	{
		OFFSET 0.000000 0.000000 0.000000
		CHANNELS 3 Zrotation Yrotation Xrotation
		JOINT RightUpLeg
		{
			OFFSET -1.800000 -1.400000 0.085000
			CHANNELS 3 Zrotation Yrotation Xrotation
			JOINT RightLeg
			{
				OFFSET -2.215000 -6.000000 0.000000
				CHANNELS 3 Zrotation Yrotation Xrotation
				JOINT RightFoot
				{
					OFFSET -2.500000 -6.900000 0.000000
					CHANNELS 3 Zrotation Yrotation Xrotation
					JOINT RightToeBase
					{
						OFFSET -0.200000 -0.500000 1.950000
						CHANNELS 3 Zrotation Yrotation Xrotation
						End Site
						{
							OFFSET 0.000000 0.000000 0.000000
						}
					}
				}
			}
		}
	}
	JOINT LowerBack
	{
		OFFSET 0.000000 0.000000 0.000000
		CHANNELS 3 Zrotation Yrotation Xrotation
		JOINT Spine
		{
			OFFSET -0.087000 1.940000 -0.288900
			CHANNELS 3 Zrotation Yrotation Xrotation
			JOINT Spine1
			{
				OFFSET 0.000000 1.950000 0.060000
				CHANNELS 3 Zrotation Yrotation Xrotation
				JOINT Neck
				{
					OFFSET 0.000000 0.000000 0.000000
					CHANNELS 3 Zrotation Yrotation Xrotation
					JOINT Neck1
					{
						OFFSET 0.000000 1.600000 0.340000
						CHANNELS 3 Zrotation Yrotation Xrotation
						JOINT Head
						{
							OFFSET 0.000000 1.667000 -0.240000
							CHANNELS 3 Zrotation Yrotation Xrotation
							End Site
							{
								OFFSET 0.000000 0.000000 0.000000
							}
						}
					}
				}
				JOINT LeftShoulder
				{
					OFFSET 0.000000 0.000000 0.000000
					CHANNELS 3 Zrotation Yrotation Xrotation
					JOINT LeftArm
					{
						OFFSET 2.700000 1.550000 -0.730000
						CHANNELS 3 Zrotation Yrotation Xrotation
						JOINT LeftForeArm
						{
							OFFSET 5.450000 0.000000 0.000000
							CHANNELS 3 Zrotation Yrotation Xrotation
							JOINT LeftHand
							{
								OFFSET 3.450000 0.000000 0.000000
								CHANNELS 3 Zrotation Yrotation Xrotation
								JOINT LeftHandIndex1
								{
									OFFSET 0.750000 0.000000 0.000000
									CHANNELS 3 Zrotation Yrotation Xrotation
									End Site
									{
										OFFSET 0.000000 0.000000 0.000000
									}
								}
							}
						}
					}
				}
				JOINT RightShoulder
				{
					OFFSET 0.000000 0.000000 0.000000
					CHANNELS 3 Zrotation Yrotation Xrotation
					JOINT RightArm
					{
						OFFSET -2.700000 1.550000 -0.730000
						CHANNELS 3 Zrotation Yrotation Xrotation
						JOINT RightForeArm
						{
							OFFSET -5.450000 0.000000 0.000000
							CHANNELS 3 Zrotation Yrotation Xrotation
							JOINT RightHand
							{
								OFFSET -3.450000 0.000000 0.000000
								CHANNELS 3 Zrotation Yrotation Xrotation
								JOINT RightHandIndex1
								{
									OFFSET -0.750000 0.000000 0.000000
									CHANNELS 3 Zrotation Yrotation Xrotation
									End Site
									{
										OFFSET 0.000000 0.000000 0.000000
									}
								}
							}
						}
					}
				}
			}
		}
	}
}
MOTION
Frames: 7
Frame Time: 0.016667
0.872130 17.752130 -2.909800 -1.164463 -0.336658 -0.494215 -15.267594 13.750090 3.187845 4.762437 -0.709009 -8.305305 -9.441494 5.520594 6.435304 0.032333 3.968244 3.241147 -0.007640 -0.031120 -0.024400 18.080899 -11.211977 1.942855 -11.239685 0.321593 -20.152457 -2.328842 -3.767109 22.820485 0.134264 -3.271926 3.150693 0.052670 0.209710 0.040930 -3.145663 -2.383594 -6.946696 3.893149 -1.458912 6.529137 1.033500 -1.275062 6.502958 -0.401533 -3.775300 -7.123203 -11.184843 3.977892 40.724293 -2.723820 2.695490 3.991280 -23.370095 -5.840909 2.278474 -46.304863 -12.583426 -1.894976 -14.817428 -42.673833 4.288594 -3.803289 3.214515 -0.064410 0.187070 -0.141090 0.038630 24.628172 8.528043 3.845825 48.284474 5.853566 -3.698770 12.195780 17.947191 0.347988 2.582266 -1.353715 -0.090820 0.064270 0.051560 0.002280 
0.859500 17.750220 -2.912010 -1.166756 -0.291858 -0.432732 -15.269024 13.757042 3.186519 4.894602 -0.747680 -8.489696 -9.484931 5.539972 6.529492 0.022427 3.978716 3.237677 -0.010210 -0.035480 -0.024860 18.078166 -11.211950 1.928605 -11.519626 0.280766 -20.153774 -2.332402 -3.803524 22.904689 0.135823 -3.293604 3.142469 0.054340 0.214310 0.040060 -3.140326 -2.410326 -6.938461 3.885696 -1.474407 6.503016 1.125452 -1.298388 6.607380 -0.464903 -3.834059 -7.146189 -11.306714 3.974669 40.537695 -2.848760 2.727990 3.945910 -23.012570 -5.862196 2.257526 -46.191830 -12.958511 -1.614925 -15.126922 -42.563722 4.430756 -3.811239 3.211085 -0.063830 0.191640 -0.145720 0.037240 24.389562 8.563215 3.889865 48.195143 5.908163 -3.713999 12.287307 18.311550 0.383290 2.574054 -1.355100 -0.096740 0.068300 0.055100 -0.000530 
0.835880 17.751240 -2.912010 -1.271340 -0.260036 -0.410472 -15.264704 13.765433 3.186975 5.127415 -0.764718 -8.539034 -9.397095 5.487247 6.301841 0.019759 3.977262 3.243108 -0.015830 -0.040300 -0.030830 18.081571 -11.210345 1.907813 -11.904813 0.218513 -20.114049 -2.351795 -3.837415 22.934182 0.138974 -3.315846 3.135286 0.054480 0.224830 0.038930 -3.152846 -2.448520 -6.930554 4.092566 -1.549665 6.477169 1.224109 -1.382007 6.732621 -0.608538 -4.054775 -7.195079 -11.805390 4.132614 40.430390 -2.928340 2.769310 4.099720 -22.648859 -5.894191 2.254096 -45.757513 -13.358663 -1.315137 -15.343746 -42.804860 4.609499 -3.818870 3.211733 -0.069800 0.198680 -0.152410 0.039010 24.281758 8.690408 3.962291 47.768285 6.014141 -3.695754 12.236950 18.744633 0.416291 2.568004 -1.357759 -0.100910 0.073690 0.058280 0.002330 
0.804570 17.751500 -2.905540 -1.400750 -0.169272 -0.422798 -15.266114 13.778407 3.190660 5.468264 -0.759682 -8.447296 -9.331133 5.434253 5.980602 0.017895 3.988283 3.241866 -0.013900 -0.037390 -0.030860 18.078097 -11.207307 1.880828 -12.389003 0.120744 -19.870580 -2.285981 -3.888363 22.772690 0.137542 -3.332255 3.129461 0.058150 0.228680 0.039860 -3.148347 -2.501141 -6.927889 4.214936 -1.584930 6.485633 1.376393 -1.436283 6.841169 -0.736564 -4.186893 -7.219222 -12.168962 4.246969 40.415884 -2.983670 2.807290 4.056400 -22.452512 -5.977344 2.168417 -44.835156 -13.864073 -0.901933 -15.743954 -42.643455 4.863687 -3.825408 3.212717 -0.070910 0.201990 -0.153740 0.040480 24.323463 8.785985 4.094066 47.053728 5.867858 -3.852435 12.167619 19.755350 0.488233 2.551457 -1.364046 -0.102150 0.077380 0.059040 0.002700 
0.762550 17.750570 -2.892080 -1.538632 0.230545 -0.446594 -15.273456 13.780652 3.201044 6.090448 -0.784369 -8.440608 -9.557271 5.452509 5.725203 0.024506 4.031793 3.224658 -0.007470 -0.030170 -0.024990 18.066131 -11.200359 1.853776 -12.923613 -0.011510 -19.321992 -1.955272 -3.996264 22.295763 0.131164 -3.341437 3.125284 0.061580 0.225600 0.043020 -3.127886 -2.547495 -6.937344 4.173323 -1.582420 6.468089 1.508307 -1.461432 6.969139 -0.786588 -4.072417 -7.290892 -12.070727 4.256481 40.656535 -2.911050 2.859370 3.975450 -22.379463 -6.386934 2.099617 -43.642656 -14.575735 -0.367383 -16.167621 -41.728502 5.065234 -3.830093 3.211673 -0.068880 0.200810 -0.148850 0.041050 24.365160 9.016337 4.317996 46.468087 5.642424 -4.025935 11.819027 20.750299 0.522090 2.536415 -1.370055 -0.099190 0.076640 0.056280 0.001960 
0.718530 17.746490 -2.878160 -1.581892 0.777702 -0.480316 -15.282328 13.772510 3.213793 6.638463 -0.795122 -8.363321 -9.798556 5.461585 5.392362 0.034476 4.076725 3.209070 -0.007680 -0.030500 -0.027070 18.053448 -11.190374 1.829093 -13.623843 -0.168884 -18.686631 -1.426294 -4.158050 21.679792 0.126984 -3.359852 3.119535 0.060880 0.226410 0.042780 -3.107561 -2.582772 -6.950974 4.036738 -1.601149 6.367404 1.534587 -1.504177 7.218917 -0.813018 -3.933118 -7.498482 -11.973436 4.239955 41.177018 -2.704120 2.766950 4.148930 -22.054667 -7.035682 2.158678 -42.413191 -15.296827 0.229305 -16.950877 -40.626989 5.366803 -3.833462 3.210793 -0.066980 0.199480 -0.147790 0.041920 24.120949 9.476631 4.645947 45.954142 5.557544 -4.128005 11.528358 21.844297 0.581885 2.522728 -1.374750 -0.099060 0.077280 0.056950 0.003030 
0.671930 17.743020 -2.863400 -1.633423 1.292244 -0.443830 -15.293427 13.759150 3.223648 7.180321 -0.818107 -8.367566 -9.954285 5.450036 5.072329 0.041832 4.106660 3.196981 -0.009340 -0.031810 -0.032370 18.038492 -11.176943 1.816446 -14.228162 -0.291632 -18.076712 -0.955993 -4.263667 20.895340 0.125845 -3.359689 3.122770 0.059280 0.227880 0.040760 -3.079740 -2.603453 -6.968438 3.840597 -1.564623 6.231414 1.636317 -1.492799 7.451566 -0.774264 -3.729796 -7.742832 -11.685596 4.219401 41.660026 -2.331720 2.639660 4.333670 -21.859668 -7.799047 2.301724 -41.901927 -15.955115 0.758149 -17.370283 -39.283105 5.418674 -3.835885 3.205554 -0.065490 0.197500 -0.148700 0.042110 23.897833 10.049722 4.979142 45.300897 5.559302 -4.095106 11.165262 22.398115 0.603212 2.514454 -1.375127 -0.099010 0.077550 0.059170 0.004430 
